<svg xmlns="http://www.w3.org/2000/svg" viewBox="0 0 512 512">

  <!-- Leader -->
  <circle cx="256" cy="128" r="48" fill="#6366F1"/>
  <path d="M256 192c-53 0-96 43-96 96v48h192v-48c0-53-43-96-96-96z" fill="#6366F1"/>

  <!-- Left team member -->
  <circle cx="96" cy="176" r="32" fill="#22D3EE"/>
  <path d="M96 224c-35.3 0-64 28.7-64 64v32h128v-32c0-35.3-28.7-64-64-64z" fill="#22D3EE"/>

  <!-- Right team member -->
  <circle cx="416" cy="176" r="32" fill="#22D3EE"/>
  <path d="M416 224c-35.3 0-64 28.7-64 64v32h128v-32c0-35.3-28.7-64-64-64z" fill="#22D3EE"/>

  <!-- Connection lines -->
  <path d="M160 256l64-32M352 256l-64-32"
        stroke="#94A3B8"
        stroke-width="8"
        stroke-linecap="round"
        fill="none"/>

  <!-- Consulting gear -->
  <circle cx="256" cy="400" r="40"
          fill="none"
          stroke="#6366F1"
          stroke-width="8"/>

  <path d="M256 344v-16M256 472v-16M200 400h-16M328 400h-16
           M218 362l-11-11M305 449l-11-11
           M218 438l-11 11M305 351l-11 11"
        stroke="#6366F1"
        stroke-width="8"
        stroke-linecap="round"
        fill="none"/>

</svg>
